<?xml version="1.0" encoding="utf-8"?>
<!-- Generator: Adobe Illustrator 19.0.0, SVG Export Plug-In . SVG Version: 6.00 Build 0)  -->
<svg version="1.1" id="Laag_1" xmlns="http://www.w3.org/2000/svg" xmlns:xlink="http://www.w3.org/1999/xlink" x="0px" y="0px"
	 width="996.5px" height="177.1px" viewBox="0 0 996.5 177.1" style="enable-background:new 0 0 996.5 177.1;" xml:space="preserve"
	>
<style type="text/css">
	.st0{fill:#475A64;}
</style>
<g id="XMLID_12_">
	<path id="XMLID_30_" class="st0" d="M116.2,10.9c1.6,0.6,2.9,1.7,3.7,3.3c0.7,1.6,0.8,3.2,0.2,4.8L70.6,160.3c0-0.1-0.1,0-0.2,0.4
		c-0.1,0.1-0.1,0.3-0.1,0.3c-0.1,0.3-0.3,0.5-0.5,0.8c-0.1,0.3-0.2,0.4-0.1,0.2c-0.2,0.3-0.5,0.6-0.8,0.9c0.1-0.1,0,0-0.2,0.2
		c-0.2,0.1-0.4,0.3-0.6,0.4c-0.1,0.1-0.3,0.1-0.4,0.2c-0.2,0.1-0.5,0.3-0.8,0.4h-0.1l-0.1,0.1c0.1-0.1,0-0.1-0.1,0
		c-0.1,0.1-0.4,0.1-0.6,0.2c-0.3,0-0.4,0-0.3,0c-0.4,0.1-0.7,0.1-1.1,0.1c-0.3,0-0.6,0-1-0.1c0.1,0,0,0-0.3,0
		c-0.3-0.1-0.5-0.1-0.8-0.2c-0.1-0.1-0.1-0.1,0,0l-0.1-0.1h-0.1c-0.3-0.1-0.6-0.3-0.9-0.4c-0.1-0.1-0.3-0.1-0.3-0.2
		c-0.2-0.1-0.4-0.3-0.6-0.4c-0.2-0.2-0.3-0.3-0.2-0.2c-0.3-0.3-0.5-0.6-0.8-0.9l-0.1-0.1v-0.1c-0.2-0.2-0.4-0.5-0.5-0.8
		c0-0.1,0-0.2-0.1-0.3c-0.1-0.4-0.2-0.5-0.2-0.4L8.9,19c-0.6-1.6-0.6-3.3,0.2-4.8c0.8-1.6,2-2.8,3.7-3.3c1.7-0.6,3.4-0.5,4.9,0.3
		c1.6,0.7,2.6,1.9,3.2,3.7l43.5,124l43.6-124c0.6-1.7,1.6-2.9,3.2-3.7c1.6-0.8,2.4-1.2,2.4-1.2S114.5,10.3,116.2,10.9z"/>
	<path id="XMLID_32_" class="st0" d="M156.3,164.6c-1.8,0-3.3-0.6-4.5-1.9c-1.3-1.2-1.9-2.7-1.9-4.5V16.8c0-1.8,0.6-3.3,1.9-4.5
		c1.3-1.4,2.8-2,4.5-1.9l85.3,0.2c1.8,0,3.3,0.6,4.5,1.9c1.3,1.3,1.9,2.8,1.9,4.5c0,1.8-0.6,3.3-1.9,4.6c-1.2,1.2-2.7,1.8-4.5,1.8
		l-78.8-0.2V81h59c1.8,0,3.3,0.6,4.5,1.9c1.3,1.2,1.9,2.7,1.9,4.5c0,1.8-0.6,3.3-1.9,4.5c-1.2,1.3-2.7,1.9-4.5,1.9h-59v57.8h78.8
		c1.8,0,3.3,0.6,4.5,1.9c1.3,1.2,1.9,2.7,1.9,4.5c0,1.8-0.6,3.3-1.9,4.5c-1.2,1.3-2.7,1.9-4.5,1.9H156.3z"/>
	<path id="XMLID_34_" class="st0" d="M391.3,162.3l-0.1-0.1l-0.1-0.1L292.8,35.5v122.7c0,1.8-0.6,3.3-1.9,4.5
		c-1.2,1.3-2.7,1.9-4.5,1.9c-1.8,0-3.3-0.6-4.5-1.9c-1.3-1.2-1.9-2.7-1.9-4.5V16.7c0-3.1,1.4-5.1,4.3-6.1c2.9-1,5.3-0.3,7.2,2.1
		l98.4,126.7V16.7c0-1.8,0.6-3.3,1.8-4.5c1.3-1.3,2.8-1.9,4.5-1.9c1.8,0,3.3,0.6,4.6,1.9c1.2,1.2,1.8,2.7,1.8,4.5v141.5
		c0-0.1,0,0,0,0.4c0,0.2,0,0.4-0.1,0.6c0,0.1,0,0.3-0.1,0.5c-0.1,0.3-0.1,0.5-0.2,0.6c-0.1,0.1-0.1,0.3-0.2,0.5
		c-0.1,0.2-0.2,0.4-0.3,0.5c-0.1,0.1-0.2,0.3-0.3,0.5c-0.1,0.2-0.3,0.4-0.4,0.5c-0.1,0.1-0.2,0.2-0.4,0.4c-0.4,0.3-0.5,0.4-0.3,0.2
		c0.1-0.1,0.1,0-0.2,0.2c-0.1,0.1-0.2,0.1-0.3,0.2c-0.2,0.1-0.4,0.3-0.6,0.3c-0.1,0.1-0.3,0.1-0.4,0.2c-0.2,0.1-0.5,0.1-0.8,0.2
		c-0.2,0.1-0.4,0.1-0.4,0.1c-0.4,0.1-0.8,0.1-1.2,0.1c-0.4,0-0.9,0-1.3-0.1l-0.4-0.1c-0.4-0.1-0.6-0.2-0.9-0.3
		c-0.1-0.1-0.2-0.2-0.4-0.3c-0.3-0.1-0.5-0.3-0.8-0.4c-0.1-0.1-0.2-0.2-0.4-0.3c-0.2-0.2-0.3-0.3-0.3-0.3S391.6,162.6,391.3,162.3z"
		/>
	<path id="XMLID_36_" class="st0" d="M450.1,164.6c-1.8,0-3.3-0.6-4.5-1.8c-1.3-1.3-1.9-2.8-1.9-4.6V16.9c0-1.8,0.6-3.3,1.9-4.6
		c1.2-1.3,2.7-1.9,4.5-1.9h35.8c21.2,0,39.3,7.5,54.4,22.6s22.6,33.2,22.6,54.4c0,21.2-7.5,39.3-22.6,54.4s-33.2,22.6-54.4,22.6
		l-35.7,0.4H450.1z M456.5,151.6l29.2-0.4c17.7,0,32.8-6.2,45.3-18.7c12.5-12.5,18.8-27.6,18.8-45.2s-6.3-32.7-18.8-45.2
		c-12.5-12.5-27.6-18.7-45.2-18.7h-29.3V151.6z"/>
	<path id="XMLID_39_" class="st0" d="M594.8,164.1c-1.6-0.6-2.8-1.8-3.4-3.4c-0.7-1.6-0.7-3.3,0-4.9l14.9-36v-0.1l43.5-105
		c0.1-0.4,0.3-0.8,0.5-1.2l0.4-0.4c0.2-0.3,0.4-0.5,0.4-0.5c0.1-0.1,0.2-0.2,0.5-0.4c0.4-0.3,0.5-0.4,0.4-0.3c0.7-0.5,1.5-0.8,2.3-1
		h0.5c0.4-0.1,0.7-0.1,0.8-0.1c0.1,0,0.3,0,0.6,0.1c0.4,0,0.6,0,0.5,0c0.9,0.1,1.6,0.5,2.4,1l0.4,0.3c0.3,0.3,0.5,0.4,0.5,0.4
		c0.1,0.1,0.2,0.3,0.4,0.5c0.3,0.4,0.4,0.5,0.4,0.4c0.2,0.4,0.4,0.8,0.5,1.2l43.5,105v0.1l14.9,36c0.7,1.6,0.7,3.3,0,4.9
		c-0.6,1.6-1.8,2.8-3.4,3.4c-0.8,0.4-1.6,0.5-2.5,0.5c-2.9,0-4.8-1.3-5.9-4l-13.3-32h-78.4l-13.3,32c-1.1,2.7-3,4-5.9,4
		c-0.9,0-1.3,0-1.3,0S595.6,164.4,594.8,164.1z M689.7,115.7l-33.9-81.9l-33.9,81.9H689.7z"/>
	<path id="XMLID_42_" class="st0" d="M781.7,23.3h-42.4c-1.8,0-3.3-0.6-4.6-1.8c-1.2-1.2-1.8-2.7-1.8-4.5c0-1.8,0.6-3.3,1.8-4.5
		c1.3-1.3,2.8-1.9,4.6-1.9h97.6c1.8,0,3.3,0.6,4.5,1.9c1.3,1.2,1.9,2.7,1.9,4.5c0,1.8-0.6,3.3-1.9,4.5c-1.2,1.2-2.7,1.8-4.5,1.8
		h-42.4v134.8c0,1.8-0.6,3.3-1.8,4.6c-1.3,1.2-2.8,1.8-4.6,1.8c-1.7,0-3.2-0.6-4.5-1.8c-1.2-1.3-1.8-2.8-1.8-4.6V23.3z"/>
	<path id="XMLID_44_" class="st0" d="M862,164.1c-1.6-0.6-2.8-1.8-3.4-3.4c-0.7-1.6-0.7-3.3,0-4.9l14.9-36v-0.1l43.5-105
		c0.1-0.4,0.3-0.8,0.5-1.2l0.4-0.4c0.2-0.3,0.4-0.5,0.4-0.5c0.1-0.1,0.2-0.2,0.5-0.4c0.4-0.3,0.5-0.4,0.4-0.3c0.7-0.5,1.5-0.8,2.3-1
		h0.5c0.4-0.1,0.7-0.1,0.8-0.1c0.1,0,0.3,0,0.6,0.1c0.4,0,0.6,0,0.5,0c0.9,0.1,1.6,0.5,2.4,1l0.4,0.3c0.3,0.3,0.5,0.4,0.5,0.4
		c0.1,0.1,0.2,0.3,0.4,0.5c0.3,0.4,0.4,0.5,0.4,0.4c0.2,0.4,0.4,0.8,0.5,1.2l43.5,105v0.1l14.9,36c0.7,1.6,0.7,3.3,0,4.9
		c-0.6,1.6-1.8,2.8-3.4,3.4c-0.8,0.4-1.6,0.5-2.5,0.5c-2.9,0-4.8-1.3-5.9-4l-13.3-32h-78.4l-13.3,32c-1.1,2.7-3,4-5.9,4
		c-0.9,0-1.3,0-1.3,0S862.7,164.4,862,164.1z M956.8,115.7l-33.9-81.9l-33.9,81.9H956.8z"/>
</g>
<g id="XMLID_29_">
</g>
<g id="XMLID_47_">
</g>
<g id="XMLID_48_">
</g>
<g id="XMLID_49_">
</g>
<g id="XMLID_50_">
</g>
<g id="XMLID_51_">
</g>
</svg>
